<?xml version="1.0" encoding="UTF-8" standalone="no"?>
<!-- Created with Inkscape (http://www.inkscape.org/) -->

<svg
   width="512"
   height="512"
   viewBox="0 0 135.46667 135.46667"
   version="1.1"
   id="svg5"
   xml:space="preserve"
   inkscape:version="1.4.3 (0d15f75042, 2025-12-25)"
   sodipodi:docname="icon.svg"
   inkscape:export-filename="icon.png"
   inkscape:export-xdpi="96"
   inkscape:export-ydpi="96"
   xmlns:inkscape="http://www.inkscape.org/namespaces/inkscape"
   xmlns:sodipodi="http://sodipodi.sourceforge.net/DTD/sodipodi-0.dtd"
   xmlns:xlink="http://www.w3.org/1999/xlink"
   xmlns="http://www.w3.org/2000/svg"
   xmlns:svg="http://www.w3.org/2000/svg"><sodipodi:namedview
     id="namedview7"
     pagecolor="#ffffff"
     bordercolor="#000000"
     borderopacity="0.25"
     inkscape:showpageshadow="2"
     inkscape:pageopacity="0.0"
     inkscape:pagecheckerboard="0"
     inkscape:deskcolor="#d1d1d1"
     inkscape:document-units="mm"
     showgrid="false"
     inkscape:zoom="0.72741906"
     inkscape:cx="116.85149"
     inkscape:cy="290.06664"
     inkscape:window-width="1079"
     inkscape:window-height="864"
     inkscape:window-x="0"
     inkscape:window-y="0"
     inkscape:window-maximized="0"
     inkscape:current-layer="layer1" /><defs
     id="defs2"><linearGradient
       inkscape:collect="always"
       id="linearGradient3657"><stop
         style="stop-color:#58b0dc;stop-opacity:1;"
         offset="0"
         id="stop3653" /><stop
         style="stop-color:#1c4392;stop-opacity:1;"
         offset="1"
         id="stop3655" /></linearGradient><linearGradient
       inkscape:collect="always"
       xlink:href="#linearGradient3657"
       id="linearGradient947"
       x1="76.787094"
       y1="113.40435"
       x2="110.68458"
       y2="152.48038"
       gradientUnits="userSpaceOnUse"
       gradientTransform="matrix(-1.4593251,0,0,-1.4593251,244.66049,307.72639)" /><linearGradient
       inkscape:collect="always"
       xlink:href="#linearGradient3657"
       id="linearGradient3659"
       x1="75.446587"
       y1="114.65311"
       x2="112.02509"
       y2="151.23161"
       gradientUnits="userSpaceOnUse"
       gradientTransform="matrix(-1.4593251,0,0,-1.4593251,244.66049,307.72639)" /><linearGradient
       inkscape:collect="always"
       xlink:href="#linearGradient3657"
       id="linearGradient2"
       x1="127.40533"
       y1="178.97105"
       x2="47.230553"
       y2="98.79628"
       gradientUnits="userSpaceOnUse"
       gradientTransform="matrix(1.1948345,0,0,1.1294636,-6.2027922,-34.450288)" /></defs><g
     inkscape:label="Layer 1"
     inkscape:groupmode="layer"
     id="layer1"
     transform="translate(-30.394373,-54.680428)"><circle
       style="fill:#ffffff;stroke:url(#linearGradient2);stroke-width:0.307363;fill-opacity:1"
       id="path1"
       cx="98.127708"
       cy="122.41376"
       r="67.579651"
       inkscape:label="Circle" /><path
       style="fill:url(#linearGradient3659);fill-opacity:1;stroke:url(#linearGradient947);stroke-width:0.202846;stroke-dasharray:none"
       d="m 84.250103,84.149478 c 1.067433,0.565883 7.306208,4.023052 36.530437,20.242992 8.13243,4.51365 15.96243,8.85406 17.4,9.64538 3.26493,1.79719 3.76659,2.23942 3.76659,3.32037 0,0.56608 -1.30307,4.19164 -4.35697,12.12246 -2.39634,6.22314 -4.51553,11.67664 -4.70932,12.11887 -0.44129,1.00705 -1.15245,1.86241 -1.84711,2.22162 -0.65024,0.33626 -16.89974,6.2705 -17.72808,6.47421 -0.89537,0.22022 -1.66772,-0.20397 -2.12313,-1.16602 -0.21855,-0.4617 -1.12679,-2.84471 -2.01829,-5.2956 -0.89151,-2.45086 -2.2187,-6.0748 -2.94936,-8.05319 -1.67398,-4.53272 -1.73648,-5.17461 -0.57088,-5.86315 0.30893,-0.18248 2.31848,-0.97102 4.46567,-1.75228 2.14719,-0.78126 4.19603,-1.5904 4.55299,-1.79808 0.82337,-0.47904 0.94729,-1.21887 0.30376,-1.81355 -0.25573,-0.23631 -4.38431,-2.59133 -9.17466,-5.2334 -13.389213,-7.3847 -12.645921,-7.05052 -13.539071,-6.0868 -0.437608,0.47218 -8.436958,20.81874 -8.895992,22.62714 -0.196133,0.77271 -0.174666,0.8801 0.243634,1.21881 0.57155,0.46282 0.488874,0.48262 5.746782,-1.37628 5.208867,-1.84156 5.704883,-1.88055 6.4027,-0.50329 0.366409,0.72318 5.977117,16.13256 6.325397,17.37227 0.22529,0.8019 -0.0502,1.56395 -0.7253,2.0063 -0.28061,0.18385 -4.363563,1.75025 -9.073229,3.48088 -6.989059,2.56821 -8.767775,3.14983 -9.677036,3.16436 -1.172859,0.0187 -1.326774,-0.0618 -22.831344,-11.96062 -1.49003,-0.82445 -2.284997,-1.69225 -2.284997,-2.49435 0,-0.31834 5.332082,-14.46208 11.849092,-31.43053 9.191121,-23.93112 11.965239,-30.953921 12.366904,-31.307427 0.682804,-0.600936 1.242178,-0.574858 2.550814,0.118935 z"
       id="path239"
       transform="translate(1.0416669e-7)"
       inkscape:label="Logo" /></g></svg>
